<svg id="Main_App_Icon" data-name="Main App Icon" xmlns="http://www.w3.org/2000/svg" xmlns:xlink="http://www.w3.org/1999/xlink" width="588.896" height="209.615" viewBox="0 0 588.896 209.615">
  <defs>
    <radialGradient id="radial-gradient" cx="0.229" cy="0" r="1.137" gradientUnits="objectBoundingBox">
      <stop offset="0" stop-color="#7be495"/>
      <stop offset="1" stop-color="#329d9c"/>
    </radialGradient>
  </defs>
  <path id="Plus-1" d="M166.731,187.408V168.314c0-22.81,24.273-41.3,54.215-41.3H246.01c16.1,0,29.151-9.942,29.151-22.207S262.109,82.6,246.01,82.6H220.946C191,82.6,166.731,64.11,166.731,41.3V22.207C166.731,9.942,153.68,0,137.58,0S108.43,9.942,108.43,22.207V41.3c0,22.81-24.273,41.3-54.215,41.3H29.151C13.051,82.6,0,92.543,0,104.807s13.051,22.207,29.151,22.207H54.215c29.942,0,54.215,18.491,54.215,41.3v19.094c0,12.264,13.051,22.207,29.151,22.207S166.731,199.672,166.731,187.408Z" fill="url(#radial-gradient)"/>
  <path id="Plus-2" d="M166.731,187.408V168.314c0-22.81,24.273-41.3,54.215-41.3H246.01c16.1,0,29.151-9.942,29.151-22.207S262.109,82.6,246.01,82.6H220.946C191,82.6,166.731,64.11,166.731,41.3V22.207C166.731,9.942,153.68,0,137.58,0S108.43,9.942,108.43,22.207V41.3c0,22.81-24.273,41.3-54.215,41.3H29.151C13.051,82.6,0,92.543,0,104.807s13.051,22.207,29.151,22.207H54.215c29.942,0,54.215,18.491,54.215,41.3v19.094c0,12.264,13.051,22.207,29.151,22.207S166.731,199.672,166.731,187.408Z" transform="translate(313.735)" fill="url(#radial-gradient)"/>
</svg>
