<svg id="Icons_Main_App_Icon" data-name="Icons/ Main App Icon" xmlns="http://www.w3.org/2000/svg" xmlns:xlink="http://www.w3.org/1999/xlink" width="227.164" height="180.564" viewBox="0 0 227.164 180.564">
  <defs>
    <radialGradient id="radial-gradient" cx="0.229" cy="0" r="1.137" gradientUnits="objectBoundingBox">
      <stop offset="0" stop-color="#7be495"/>
      <stop offset="1" stop-color="#329d9c"/>
    </radialGradient>
  </defs>
  <g id="Main_App_Icon" data-name="Main App Icon">
    <path id="Plus-1" d="M64.316,161.435V144.988c0-19.648,9.363-35.576,20.913-35.576H94.9c6.21,0,11.245-8.564,11.245-19.129S101.108,71.153,94.9,71.153H85.229c-11.55,0-20.913-15.928-20.913-35.576V19.129C64.316,8.564,59.281,0,53.071,0S41.826,8.564,41.826,19.129V35.576c0,19.648-9.363,35.576-20.913,35.576H11.245C5.034,71.153,0,79.717,0,90.282s5.034,19.129,11.245,19.129h9.668c11.55,0,20.913,15.928,20.913,35.576v16.447c0,10.565,5.034,19.129,11.245,19.129S64.316,172,64.316,161.435Z" transform="translate(0)" fill="url(#radial-gradient)"/>
    <path id="Plus-2" d="M64.316,161.435V144.988c0-19.648,9.363-35.576,20.913-35.576H94.9c6.21,0,11.245-8.564,11.245-19.129S101.108,71.153,94.9,71.153H85.229c-11.55,0-20.913-15.928-20.913-35.576V19.129C64.316,8.564,59.281,0,53.071,0S41.826,8.564,41.826,19.129V35.576c0,19.648-9.363,35.576-20.913,35.576H11.245C5.034,71.153,0,79.717,0,90.282s5.034,19.129,11.245,19.129h9.668c11.55,0,20.913,15.928,20.913,35.576v16.447c0,10.565,5.034,19.129,11.245,19.129S64.316,172,64.316,161.435Z" transform="translate(121.022)" fill="url(#radial-gradient)"/>
  </g>
</svg>
